<svg width="113" height="56" viewBox="0 0 113 56" fill="none" xmlns="http://www.w3.org/2000/svg">
<g clip-path="url(#clip0_2539_8529)">
<path d="M25.6947 10.4046H22.63V17.1153L14.4148 13.6568H11.3628C11.4107 13.9243 11.4362 14.1821 11.4362 14.4465C11.4362 16.6092 9.78102 18.3917 7.66345 18.6076C7.66345 18.6076 7.66026 18.6076 7.65707 18.6076C7.60286 18.6141 7.54864 18.6173 7.49443 18.6205C7.4721 18.6205 7.45297 18.6205 7.43383 18.6237C7.41151 18.6237 7.39237 18.6237 7.37005 18.6237C7.33178 18.6237 7.29351 18.6237 7.25205 18.6237C7.24568 18.6237 7.2393 18.6237 7.23611 18.6237C7.23292 18.6237 7.22335 18.6237 7.22016 18.6237C7.18189 18.6237 7.14043 18.6237 7.10217 18.6237C7.07984 18.6237 7.06071 18.6237 7.03838 18.6237C7.01606 18.6237 6.99692 18.6237 6.97779 18.6205C6.92357 18.6173 6.86936 18.6141 6.81514 18.6076C6.81514 18.6076 6.81196 18.6076 6.80877 18.6076C4.69438 18.3917 3.03604 16.6092 3.03604 14.4465C3.03604 12.2837 4.69119 10.5012 6.80877 10.2853C6.80877 10.2853 6.81196 10.2853 6.81514 10.2853C6.86936 10.2788 6.92357 10.2756 6.97779 10.2724C7.00011 10.2724 7.01925 10.2724 7.03838 10.2692C7.06071 10.2692 7.07984 10.2692 7.10217 10.2692C7.14043 10.2692 7.1787 10.2692 7.22016 10.2692H7.25524C7.29351 10.2692 7.33497 10.2692 7.37324 10.2692C7.39556 10.2692 7.4147 10.2692 7.43702 10.2692C7.45935 10.2692 7.47848 10.2692 7.49762 10.2724C7.55183 10.2724 7.60605 10.2788 7.66026 10.2853C7.66026 10.2853 7.66345 10.2853 7.66664 10.2853C7.88669 10.3079 8.10355 10.3465 8.31403 10.4013V7.27804C8.17052 7.25548 8.02701 7.23936 7.8835 7.22647C7.86755 7.22647 7.84842 7.22325 7.83247 7.22325C7.81015 7.22325 7.78464 7.22002 7.76231 7.2168C7.72723 7.2168 7.69215 7.21358 7.65707 7.21035C7.63475 7.21035 7.61242 7.21035 7.5901 7.20713C7.54545 7.20713 7.5008 7.20391 7.45616 7.20068C7.4434 7.20068 7.43064 7.20068 7.41789 7.20068C7.36048 7.20068 7.30308 7.20068 7.24249 7.20068H7.23611C7.1787 7.20068 7.1213 7.20068 7.06071 7.20068C7.04795 7.20068 7.03519 7.20068 7.02563 7.20068C6.98098 7.20068 6.93633 7.20068 6.89168 7.20713C6.86936 7.20713 6.84704 7.20713 6.82471 7.21035C6.78963 7.21035 6.75455 7.21358 6.71947 7.2168C6.69715 7.2168 6.67482 7.2168 6.64931 7.22325C6.63336 7.22325 6.61423 7.22325 6.59828 7.22647C2.89572 7.55524 0 10.6624 0 14.4465C0 18.2305 2.89572 21.3377 6.58872 21.6664C6.60466 21.6664 6.6238 21.6664 6.63974 21.6697C6.66207 21.6697 6.68758 21.6729 6.7099 21.6761C6.74498 21.6761 6.78006 21.6793 6.81514 21.6826C6.83747 21.6826 6.85979 21.6826 6.88212 21.6858C6.92676 21.6858 6.97141 21.689 7.01606 21.6922C7.02882 21.6922 7.04157 21.6922 7.05114 21.6922C7.10854 21.6922 7.16595 21.6922 7.22654 21.6922H7.23292C7.29032 21.6922 7.34773 21.6922 7.40832 21.6922C7.42108 21.6922 7.43383 21.6922 7.44659 21.6922C7.49124 21.6922 7.53589 21.6922 7.58053 21.6858C7.60286 21.6858 7.62518 21.6858 7.6475 21.6826C7.68258 21.6826 7.71766 21.6793 7.75274 21.6761C7.77507 21.6761 7.79739 21.6729 7.82291 21.6697C7.83885 21.6697 7.85799 21.6697 7.87393 21.6664C10.7314 21.4118 13.1105 19.4972 14.0417 16.8929L25.6915 21.7245V10.4078L25.6947 10.4046Z" fill="#5D8FC8"/>
<path d="M18.5385 0C14.5777 0 11.3662 3.27478 11.3662 7.31346C11.3662 7.53263 11.3758 7.74537 11.3949 7.96132H14.4469C14.415 7.75181 14.3991 7.53586 14.3991 7.31346C14.3991 4.97019 16.2551 3.06527 18.5353 3.06527C20.8156 3.06527 22.6716 4.97019 22.6716 7.31346C22.6716 7.53263 22.6557 7.74859 22.6238 7.96132H25.6758C25.6949 7.74859 25.7045 7.53263 25.7045 7.31346C25.7045 3.27478 22.493 0 18.5322 0" fill="#5D8FC8"/>
<path d="M29.3559 7.25225C29.139 7.25225 28.9285 7.26192 28.7148 7.28126V10.4045C28.9253 10.3788 29.1358 10.3562 29.3559 10.3562C31.6743 10.3562 33.5591 12.1419 33.5591 14.4464C33.5591 16.751 31.6743 18.6269 29.3559 18.6269C29.139 18.6269 28.9253 18.6108 28.7148 18.5786V21.6632C28.9253 21.6825 29.139 21.6922 29.3559 21.6922C33.3518 21.6922 36.592 18.4464 36.592 14.4432C36.592 10.44 33.3518 7.24902 29.3559 7.24902" fill="#5D8FC8"/>
<path d="M3.4248 48.7446C3.4248 49.7051 3.62572 50.6334 4.02117 51.5069C4.41662 52.3804 4.95239 53.141 5.61573 53.7696C6.27907 54.3981 7.07953 54.9074 7.99481 55.2813C8.91009 55.6551 9.88596 55.8453 10.8937 55.8453H18.3499V52.8929H11.8058C10.8523 52.8929 9.95931 52.664 9.14927 52.216C8.33924 51.768 7.69184 51.1491 7.22623 50.382C6.76062 49.6181 6.52144 48.7736 6.52144 47.8711V33.3248H18.3499V30.3723H3.4248V48.7381V48.7446Z" fill="#173478"/>
<path d="M72.3288 48.8832C72.3288 50.0242 71.8983 51.0137 71.0436 51.8195C70.1889 52.6286 69.1429 53.0379 67.9342 53.0379C66.7255 53.0379 65.6827 52.6286 64.8344 51.8195C63.9893 51.0137 63.5619 50.0274 63.5619 48.8832V37.3054C63.5619 36.1644 63.9893 35.1749 64.8344 34.3691C65.6827 33.5601 66.7255 33.1507 67.9342 33.1507C69.1429 33.1507 70.1889 33.5601 71.0436 34.3691C71.8951 35.1749 72.3288 36.1612 72.3288 37.3022V48.88V48.8832ZM75.3936 41.6149V37.3022C75.3936 36.3449 75.1958 35.4134 74.8036 34.5399C74.4113 33.6664 73.8787 32.9025 73.2154 32.2708C72.5521 31.639 71.7516 31.1298 70.8363 30.7559C69.0026 30.0145 66.8754 30.0113 65.0417 30.7623C64.1264 31.1362 63.3259 31.6455 62.6626 32.274C61.9993 32.9057 61.4635 33.6664 61.068 34.5367C60.6726 35.4102 60.4717 36.3417 60.4717 37.299V48.8767C60.4717 49.8373 60.6726 50.7655 61.068 51.6423C61.4635 52.5125 61.9993 53.2764 62.6626 53.9114C63.3259 54.5431 64.1264 55.0556 65.0417 55.4295C65.957 55.8034 66.9328 55.9936 67.9406 55.9936C68.9484 55.9936 69.921 55.8034 70.8363 55.4295C71.7516 55.0556 72.5521 54.5431 73.2154 53.9114C73.8787 53.2764 74.4113 52.5125 74.8036 51.6423C75.1958 50.7688 75.3936 49.8373 75.3936 48.88V44.4932H83.5481V41.6149H75.3936Z" fill="#173478"/>
<path d="M91.3588 42.1435L96.8218 30.3788H84.5277V33.4892H91.9775L88.1857 41.7309V41.747V44.5802H88.3611C89.5697 44.5802 90.6158 44.9928 91.4736 45.8051C92.3251 46.6141 92.7557 47.6036 92.7557 48.7446C92.7557 49.8856 92.3251 50.8752 91.4736 51.681C90.619 52.49 89.5729 52.8993 88.3611 52.8993C88.3483 52.8993 84.3428 52.9026 84.3428 52.9026V55.8518H88.3611C89.3656 55.8518 90.3415 55.6648 91.2568 55.2909C92.1721 54.9203 92.9725 54.411 93.6359 53.7793C94.2992 53.1443 94.835 52.3804 95.224 51.5101C95.6163 50.6366 95.814 49.7051 95.814 48.7478C95.814 47.581 95.5334 46.4819 94.9817 45.4795C94.1525 43.826 92.7238 42.7495 91.3556 42.1499" fill="#5D8FC8"/>
<path d="M34.4549 30.3819V48.7477C34.4549 49.8888 34.0244 50.8783 33.1729 51.6841C32.3182 52.4931 31.2722 52.9025 30.0635 52.9025C28.8548 52.9025 27.812 52.4931 26.9637 51.6841C26.1186 50.8783 25.6912 49.892 25.6912 48.7477V24.6962L22.5946 23.2941V41.647H11.168V44.4963H22.5946V48.7477C22.5946 49.7083 22.7955 50.6365 23.1909 51.5133C23.5864 52.3867 24.1222 53.1474 24.7855 53.7759C25.4488 54.4045 26.2493 54.9137 27.1646 55.2876C28.0799 55.6615 29.0557 55.8517 30.0635 55.8517C31.0713 55.8517 32.0439 55.6647 32.9592 55.2908C33.8777 54.9202 34.6781 54.4109 35.3383 53.7759C36.0016 53.1442 36.5374 52.3803 36.9265 51.5068C37.3187 50.6333 37.5165 49.7018 37.5165 48.7445V30.3787H34.4549V30.3819Z" fill="#173478"/>
<path d="M113 37.4859C113 36.5028 112.818 35.5488 112.464 34.6495C112.107 33.7502 111.619 32.967 111.013 32.3191C110.404 31.668 109.674 31.1459 108.835 30.7623C107.996 30.3787 107.1 30.1821 106.178 30.1821C105.059 30.1821 104 30.4593 103.04 30.9976C100.103 32.5028 99.443 35.61 99.341 36.2224L99.2868 36.6156L99.2549 37.0766V37.7599H102.345V37.4859C102.345 36.3449 102.725 35.3586 103.474 34.5528C104.23 33.7405 105.116 33.3473 106.178 33.3473C107.24 33.3473 108.127 33.7405 108.88 34.5528C109.626 35.3586 110.005 36.3449 110.005 37.4859V37.6277H113C113 37.5794 113.003 37.5343 113.003 37.4859" fill="#5D8FC8"/>
<path d="M99.248 48.7445C99.248 49.7051 99.449 50.6334 99.8444 51.5068C100.24 52.3803 100.776 53.141 101.439 53.7695C102.102 54.3981 102.903 54.9073 103.818 55.2812C104.733 55.6551 105.709 55.8453 106.717 55.8453H112.987V52.8928H107.629C106.676 52.8928 105.783 52.664 104.973 52.2159C104.162 51.7679 103.515 51.1491 103.049 50.3819C102.584 49.618 102.345 48.7736 102.345 47.8711V41.6342H99.248V48.7349V48.7445Z" fill="#5D8FC8"/>
<path d="M45.2311 33.3312H49.6034C50.8121 33.3312 51.8581 33.7405 52.716 34.5496C53.5675 35.3554 53.998 36.3417 53.998 37.4827C53.998 38.6237 53.5675 39.61 52.716 40.419C51.8613 41.2281 50.8153 41.6374 49.6034 41.6374H45.2311V33.328V33.3312ZM54.1575 43.1169C55.0154 42.4851 55.7106 41.6922 56.224 40.7607C56.7789 39.7518 57.0596 38.6527 57.0596 37.4859C57.0596 36.5254 56.8619 35.5971 56.4696 34.7236C56.0773 33.8501 55.5447 33.0862 54.8814 32.4545C54.2181 31.8227 53.4176 31.3135 52.5023 30.9428C51.5839 30.5721 50.6112 30.382 49.6066 30.382H42.1377V44.4996H49.6066C50.8153 44.4964 51.8613 44.996 52.7192 45.8082C53.5707 46.6173 54.0012 47.6068 54.0012 48.7478V55.8517H57.0628V48.7478C57.0628 47.581 56.7821 46.4819 56.2272 45.473C55.7138 44.5415 55.0185 43.7518 54.1607 43.1169" fill="#173478"/>
<path d="M22.6299 10.4045V17.1153V20.4513L25.6946 21.7212V10.4045H22.6299Z" fill="#173478"/>
</g>
<defs>
<clipPath id="clip0_2539_8529">
<rect width="113" height="56" fill="white"/>
</clipPath>
</defs>
</svg>
