<svg width="930" height="345" viewBox="0 0 930 345" fill="none" xmlns="http://www.w3.org/2000/svg">
<g opacity="0.7">
<path d="M330.122 54.1562H337.469V68.3623C333.647 71.262 328.385 72.8117 323.421 72.8117C312.502 72.8117 304.461 65.263 304.461 54.7082C304.461 44.1534 312.502 36.6047 323.573 36.6047C329.679 36.6047 334.743 38.7064 338.116 42.6569L332.954 47.4588C330.425 44.7586 327.494 43.5082 323.969 43.5082C317.215 43.5082 312.601 48.0574 312.601 54.7082C312.601 61.359 317.215 65.9081 323.87 65.9081C326.055 65.9081 328.088 65.5091 330.122 64.4051V54.1495V54.1562Z" fill="#EB5D15"/>
<path d="M389.596 72.2065L382.896 62.4564H375.502V72.2065H367.461V37.2033H382.5C391.781 37.2033 397.591 42.0517 397.591 49.9063C397.591 55.1605 394.957 59.0113 390.441 60.96L398.238 72.2131H389.603L389.596 72.2065ZM382.051 43.8009H375.495V56.0051H382.051C386.962 56.0051 389.444 53.7039 389.444 49.9063C389.444 46.1087 386.962 43.8075 382.051 43.8075V43.8009Z" fill="#EB5D15"/>
<path d="M424.294 54.7082C424.294 44.3063 432.335 36.6047 443.307 36.6047C454.279 36.6047 462.319 44.2531 462.319 54.7082C462.319 65.1633 454.226 72.8117 443.307 72.8117C432.388 72.8117 424.294 65.1101 424.294 54.7082ZM454.173 54.7082C454.173 48.0574 449.506 43.5082 443.3 43.5082C437.095 43.5082 432.427 48.0574 432.427 54.7082C432.427 61.359 437.095 65.9081 443.3 65.9081C449.506 65.9081 454.173 61.359 454.173 54.7082Z" fill="#EB5D15"/>
<path d="M490.615 56.8032V37.2033H498.656V56.5106C498.656 63.1614 501.534 65.9148 506.4 65.9148C511.265 65.9148 514.143 63.1614 514.143 56.5106V37.2033H522.085V56.8098C522.085 67.1119 516.229 72.8117 506.347 72.8117C496.464 72.8117 490.608 67.1119 490.608 56.8098L490.615 56.8032Z" fill="#EB5D15"/>
<path d="M582.694 49.9063C582.694 57.7077 576.885 62.5561 567.603 62.5561H560.605V72.2065H552.564V37.2033H567.603C576.885 37.2033 582.694 42.0517 582.694 49.9063ZM574.555 49.9063C574.555 46.0555 572.072 43.8075 567.161 43.8075H560.605V55.9585H567.161C572.072 55.9585 574.555 53.7106 574.555 49.9063Z" fill="#EB5D15"/>
<path d="M637.845 65.7086V72.2131H610.937V37.2033H637.198V43.7078H618.931V51.3096H635.066V57.6079H618.931V65.7086H637.845Z" fill="#EB5D15"/>
<path d="M698.409 72.2065L698.356 51.2032L688.13 68.5086H684.506L674.326 51.6555V72.2131H666.78V37.2033H673.435L686.44 58.9581L699.247 37.2033H705.849L705.948 72.2131H698.402L698.409 72.2065Z" fill="#EB5D15"/>
<path d="M763.633 65.7086V72.2131H736.725V37.2033H762.986V43.7078H744.719V51.3096H760.854V57.6079H744.719V65.7086H763.633Z" fill="#EB5D15"/>
<path d="M824.447 37.2033V72.2131H817.846L800.523 50.9571V72.2131H792.581V37.2033H799.236L816.512 58.4593V37.2033H824.454H824.447Z" fill="#EB5D15"/>
<path d="M862.42 43.8009H851.303V37.1966H881.585V43.8009H870.467V72.2065H862.427V43.8009H862.42Z" fill="#EB5D15"/>
</g>
<path d="M361.05 100.432C360.826 110.282 359.241 125.878 356.271 147.228C353.524 167.473 352.151 183.016 352.151 193.856C352.151 197.281 352.257 200.547 352.481 203.646C352.481 204.418 352.151 205.163 351.491 205.888C350.831 206.606 350.065 206.965 349.187 206.965C346.111 206.965 344.084 206.686 343.094 206.134C338.922 203.7 336.835 199.104 336.835 192.36C336.835 191.03 336.915 188.961 337.08 186.135C337.245 183.315 337.324 181.24 337.324 179.91C337.324 177.695 337.595 174.323 338.149 169.787C338.697 165.251 338.974 161.766 338.974 159.332C337.436 159.445 335.324 159.226 332.63 158.667C329.937 158.115 327.989 157.836 326.781 157.836C325.355 157.836 323.982 158.062 322.662 158.501C320.028 167.24 318.489 180.129 318.047 197.168C314.311 198.718 310.686 198.552 307.174 196.67C304.646 195.339 303.385 192.686 303.385 188.702C303.385 187.817 303.464 186.627 303.629 185.137C303.794 183.641 303.873 182.73 303.873 182.397C304.203 176.425 305.464 164.586 307.663 146.882C309.531 132.057 310.409 120.278 310.297 111.533C310.297 110.316 311.148 109.544 312.852 109.212C314.555 108.879 315.512 108.546 315.736 108.214C316.397 108.992 317.988 109.65 320.516 110.203C322.602 110.648 323.863 111.639 324.305 113.189C325.183 115.955 325.626 119.055 325.626 122.48C325.626 124.914 325.269 128.758 324.556 134.012C323.843 139.267 323.487 143.277 323.487 146.044C324.807 147.041 326.451 147.647 328.431 147.866C329.752 148.092 331.613 148.145 334.03 148.032C337.212 147.813 339.133 147.7 339.793 147.7C342.539 136.081 344.955 121.037 347.042 102.561C347.477 98.69 348.85 96.7546 351.161 96.7546C356.977 96.2026 360.278 97.4197 361.044 100.406L361.05 100.432Z" fill="#4594D0"/>
<path d="M427.43 157.35C420.947 172.062 411.784 180.807 399.921 183.568C398.495 183.9 397.062 184.066 395.636 184.066C389.378 184.066 383.06 180.641 376.696 173.778C372.411 169.129 370.272 163.103 370.272 155.687C370.272 147.5 372.689 138.708 377.521 129.304C379.607 125.32 382.136 121.895 385.1 119.015C388.5 115.59 391.741 113.867 394.817 113.867C396.573 113.867 398.217 114.532 399.762 115.856C401.3 117.186 405.413 118.955 412.114 121.163C417.382 122.932 421.118 125.918 423.317 130.122C427.159 137.537 429.08 143.895 429.08 149.203C429.08 152.189 428.532 154.903 427.43 157.337V157.35ZM414.253 147.061C413.48 138.987 411.341 134.172 407.829 132.622C407.281 132.403 406.786 132.29 406.344 132.29C405.024 132.29 403.38 133.401 401.399 135.609C399.201 138.156 397.498 139.646 396.29 140.091C395.517 140.424 394.421 140.091 392.995 139.094C391.569 138.096 390.632 137.597 390.196 137.597C389.866 137.597 389.589 137.71 389.371 137.93C385.529 141.248 383.608 146.396 383.608 153.366C383.608 158.122 384.704 162.159 386.902 165.477C389.972 170.013 392.56 172.281 394.646 172.281C399.478 172.281 404.146 169.242 408.648 163.156C412.932 157.403 414.794 152.036 414.246 147.061H414.253Z" fill="#4594D0"/>
<path d="M469.931 92.7974C469.931 95.0121 468.34 96.9475 465.151 98.6035C464.273 99.0491 463.343 99.1023 462.352 98.7698C460.814 98.3308 459.989 98.1047 459.883 98.1047C459.223 98.1047 458.563 98.4372 457.909 99.1023C451.981 105.075 449.017 112.377 449.017 121.01C449.017 124.222 449.512 127.209 450.502 129.969C450.938 131.186 455.117 139.759 463.019 155.687C468.287 166.309 470.928 175.327 470.928 182.736C470.928 188.822 469.443 194.688 466.478 200.328C465.488 202.21 463.019 204.644 459.065 207.63C455.876 209.951 453.024 211.115 450.502 211.115C449.512 211.115 448.581 210.949 447.703 210.616C444.409 209.18 442.759 207.351 442.759 205.143C442.759 203.813 443.584 202.21 445.228 200.328C445.663 199.776 446.713 199.443 448.357 199.33C450.007 199.217 451.103 198.552 451.651 197.341C453.955 192.473 455.11 187.498 455.11 182.404C455.11 175.214 451.572 164.786 444.488 151.125C437.405 137.464 433.866 126.537 433.866 118.35C433.866 111.606 435.187 105.574 437.821 100.26C440.785 94.1741 445.01 89.8045 450.502 87.1508C453.024 85.9337 455.5 85.3285 457.916 85.3285C462.531 85.3285 465.99 86.5988 468.294 89.1461C469.39 90.3632 469.944 91.5803 469.944 92.7974H469.931Z" fill="#4594D0"/>
<path d="M527.247 135.782C523.075 144.853 519.503 150.885 516.539 153.872C511.925 158.521 509.396 161.061 508.961 161.507C505.772 164.054 502.59 165.604 499.408 166.156C498.966 168.37 498.748 170.971 498.748 173.957C498.748 176.059 498.913 179.245 499.243 183.501C499.573 187.764 499.738 190.883 499.738 192.879C499.738 200.401 497.982 206.041 494.47 209.805L489.855 207.318C487.987 206.32 486.944 205.103 486.726 203.666C485.624 196.47 485.076 188.456 485.076 179.604C485.076 173.738 485.406 164.998 486.066 153.386C486.726 141.767 487.056 132.975 487.056 127.002C487.056 118.37 486.561 110.462 485.571 103.272C484.693 103.605 483.868 103.053 483.102 101.61C482.329 100.173 481.676 99.3417 481.128 99.1223C481.676 95.584 482.613 93.8149 483.927 93.8149C485.577 93.2629 488.977 93.376 494.14 94.1475C508.413 96.4686 519.18 102.78 526.429 113.062C528.733 116.381 529.888 120.145 529.888 124.349C529.888 128 529.01 131.818 527.254 135.801L527.247 135.782ZM516.546 122.999C517.094 118.576 515.225 115.091 510.948 112.544C510.723 112.544 506.775 110.941 499.084 107.728C500.293 128.087 500.675 142.359 500.24 150.546C510.01 141.255 515.45 132.07 516.546 122.999Z" fill="#4594D0"/>
<path d="M556.572 109.225C556.79 112.437 556.902 115.756 556.902 119.181C556.902 126.703 556.13 138.043 554.598 153.2C553.06 168.357 552.294 179.81 552.294 187.551C552.294 190.431 552.347 193.251 552.459 196.018C551.469 199.11 549.33 200.607 546.036 200.5C541.316 200.281 538.734 198.233 538.292 194.362C537.85 190.491 537.632 186.394 537.632 182.084C537.632 174.562 538.536 163.336 540.352 148.398C542.167 133.46 543.072 122.287 543.072 114.878C543.072 112.005 542.959 109.178 542.742 106.412C543.837 104.31 545.706 103.259 548.34 103.259C550.426 103.259 552.512 103.871 554.598 105.081C555.034 104.749 555.364 104.583 555.588 104.583C555.918 104.583 556.083 105.135 556.083 106.245C555.971 107.575 555.971 108.347 556.083 108.566C556.189 108.899 556.354 109.118 556.579 109.231L556.572 109.225Z" fill="#4594D0"/>
<path d="M648.816 89.8111C647.826 93.795 645.958 96.1161 643.218 96.7812C636.075 98.5503 623.671 100.878 605.991 103.751C603.793 131.299 602.697 154.257 602.697 172.62C602.697 179.59 602.803 186.447 603.027 193.198C603.133 195.3 603.027 196.902 602.697 198.013C602.149 199.782 601.047 200.614 599.403 200.5C596.214 200.387 593.58 199.031 591.494 196.437C589.408 193.836 588.253 190.937 588.035 187.724C587.817 183.634 587.705 179.318 587.705 174.782C587.705 167.479 588.2 155.92 589.19 140.098C590.18 124.941 590.616 113.382 590.51 105.414C587.546 105.194 583.427 105.474 578.159 106.245C572.118 107.13 567.946 107.575 565.642 107.575C560.262 107.575 555.872 106.126 552.465 103.226C551.145 100.326 550.491 98.823 550.491 98.7099C550.491 97.9318 550.874 97.0938 551.647 96.2026C555.165 94.9788 562.354 93.8615 573.227 92.8572C582.78 91.8529 589.916 90.0705 594.643 87.5033C598.485 88.8335 602.882 89.4919 607.82 89.4919C612.758 89.4919 617.478 88.8867 621.987 87.6696C623.308 87.5632 626.655 86.785 632.035 85.3485C635.989 84.3508 639.284 84.0183 641.918 84.3508C643.892 84.3508 644.717 85.1822 644.387 86.8382C647.351 86.8382 648.836 87.8358 648.836 89.8244L648.816 89.8111Z" fill="#4594D0"/>
<path d="M686.208 185.23C686.868 186.999 687.198 188.549 687.198 189.879C687.198 192.094 686.261 194.029 684.399 195.685C682.531 197.348 681.27 198.119 680.61 198.006C675.23 197.009 671.823 192.639 670.397 184.898C668.859 176.491 667.044 169.461 664.964 163.821C661.228 164.154 657.498 164.486 653.761 164.819C649.477 165.371 646.13 166.701 643.713 168.803C642.505 172.235 640.914 178.32 638.934 187.059C637.065 195.133 635.25 201.272 633.501 205.482C632.623 207.471 630.754 208.029 627.902 207.145C624.278 205.928 622.357 204.265 622.139 202.163C621.809 197.96 623.017 192.32 625.763 185.237C629.058 177.163 630.873 171.41 631.197 167.978C631.302 166.98 630.589 165.876 629.058 164.659C627.519 163.442 626.754 162.504 626.754 161.839C626.754 161.287 626.998 160.709 627.493 160.097C627.988 159.492 629.143 158.993 630.952 158.6C632.768 158.215 633.778 157.636 634.002 156.858C635.976 151.324 639.112 141.036 643.39 125.992C647.014 112.936 650.249 102.927 653.107 95.9565C653.768 94.4068 655.141 93.6354 657.227 93.6354C658.765 93.6354 660.138 94.1342 661.346 95.1318C664.423 97.7855 666.397 101.769 667.275 107.083C667.935 111.619 668.536 116.155 669.09 120.691C674.583 146.802 680.293 168.317 686.221 185.244L686.208 185.23ZM662.158 153.533C661.828 149.442 661.115 144.847 660.019 139.759C658.917 135.336 657.88 130.906 656.89 126.484C653.596 135.668 650.737 144.847 648.328 154.031C650.084 153.699 654.698 153.533 662.165 153.533H662.158Z" fill="#4594D0"/>
<path d="M739.576 173.99C739.352 174.103 732.928 178.712 720.306 187.831C712.945 193.165 706.416 197.115 700.705 199.669C700.045 200.002 699.385 200.168 698.732 200.168C697.193 200.168 695.767 199.17 694.447 197.175C692.473 194.515 691.423 193.131 691.318 193.018C691.1 183.268 691.701 169.694 693.133 152.295C694.784 133.793 695.602 120.438 695.602 112.238C695.602 106.584 695.384 101.27 694.942 96.2824C696.368 94.8458 698.177 94.1209 700.375 94.1209C704.548 94.1209 706.964 95.6705 707.624 98.7698C707.954 107.841 707.565 121.422 706.469 139.513C705.373 157.603 704.931 171.184 705.148 180.255C708.225 178.925 712.232 176.604 717.17 173.285C722.55 169.528 726.445 167.034 728.868 165.817C729.416 165.817 730.373 165.71 731.753 165.484C733.126 165.265 734.143 165.151 734.803 165.151C737.001 165.151 738.592 166.043 739.583 167.818C740.903 170.266 740.903 172.321 739.583 173.984L739.576 173.99Z" fill="#4594D0"/>
<path d="M762.966 109.225C763.183 112.437 763.296 115.756 763.296 119.181C763.296 126.703 762.523 138.043 760.992 153.2C759.454 168.357 758.688 179.81 758.688 187.551C758.688 190.431 758.741 193.251 758.853 196.018C757.863 199.11 755.724 200.607 752.429 200.5C747.709 200.281 745.128 198.233 744.686 194.362C744.243 190.491 744.025 186.394 744.025 182.084C744.025 174.562 744.93 163.336 746.745 148.398C748.561 133.46 749.465 122.287 749.465 114.878C749.465 112.005 749.353 109.178 749.135 106.412C750.231 104.31 752.099 103.259 754.733 103.259C756.819 103.259 758.906 103.871 760.992 105.081C761.427 104.749 761.758 104.583 761.982 104.583C762.312 104.583 762.477 105.135 762.477 106.245C762.365 107.575 762.365 108.347 762.477 108.566C762.583 108.899 762.748 109.118 762.972 109.231L762.966 109.225Z" fill="#4594D0"/>
<path d="M828.85 110.222C824.784 111.885 818.803 113.821 810.894 116.029C802.985 118.243 796.997 120.179 792.937 121.835C791.947 124.715 791.234 131.126 790.798 141.082C792.554 141.747 794.588 142.08 796.892 142.08C798.542 142.08 801.117 141.807 804.636 141.248C808.148 140.696 810.729 140.417 812.379 140.417C815.456 140.417 818.09 141.082 820.288 142.406C821.826 144.62 822.592 146.057 822.592 146.722C822.592 147.5 822.209 148.105 821.437 148.544C821.212 148.657 820.446 149.429 819.133 150.866C818.255 151.863 817.159 152.302 815.839 152.196C813.535 152.748 809.303 153.08 803.157 153.193C797.994 153.306 793.875 153.971 790.805 155.182C788.719 163.369 787.676 169.84 787.676 174.596C787.676 177.808 788.112 180.349 788.996 182.231C794.159 185.882 803.104 187.432 815.845 186.88C816.723 186.88 817.654 186.467 818.644 185.636C819.634 184.805 820.46 184.392 821.113 184.392C824.19 183.727 826.216 186.055 827.207 191.362C827.537 193.131 827.233 194.767 826.302 196.257C825.365 197.754 824.025 198.552 822.269 198.665C808.979 199.104 797.453 198.053 787.676 195.512C784.599 194.734 781.8 193.025 779.279 190.365C776.75 187.711 775.324 184.725 774.994 181.406C774.004 171.782 774.004 163.15 774.994 155.521C771.918 153.419 770.545 151.371 770.875 149.382C770.98 148.385 771.832 147.474 773.429 146.642C775.02 145.811 775.925 144.96 776.149 144.068C776.367 143.184 776.809 137.93 777.47 128.306C771.317 127.089 768.3 124.768 768.412 121.336C768.518 118.13 770.445 115.583 774.175 113.701C777.688 112.264 781.2 110.828 784.718 109.384C788.778 107.283 793.888 105.401 800.041 103.745C805.421 102.308 810.801 100.925 816.182 99.5945C816.73 99.4881 817.39 99.4282 818.156 99.4282C821.12 99.4282 824.579 100.592 828.533 102.913C828.639 103.359 828.916 104.184 829.359 105.401C829.794 106.618 830.019 107.502 830.019 108.054C830.019 108.939 829.636 109.657 828.864 110.209L828.85 110.222Z" fill="#4594D0"/>
<path d="M899.68 194.355C900.01 194.794 900.175 195.293 900.175 195.852C900.175 198.392 897.541 200.334 892.267 201.658C886.444 197.122 879.195 190.152 870.521 180.748C860.856 170.239 853.66 162.937 848.94 158.84C848.61 161.72 848.003 169.242 847.131 181.406C846.583 190.591 845.593 197.887 844.167 203.314C843.949 203.314 843.263 203.586 842.107 204.145C840.952 204.697 839.988 204.863 839.222 204.644C834.39 203.533 831.974 200.161 831.974 194.521C831.974 192.859 832.191 190.651 832.634 187.884C833.07 184.678 833.347 182.683 833.459 181.911C833.895 175.493 834.172 167.865 834.284 159.013V140.923C834.284 125.878 835.109 113.209 836.753 102.92C837.849 96.0629 844.273 92.9104 856.024 93.4624C861.952 93.6886 867.114 96.6748 871.511 102.421C875.571 107.728 877.604 113.488 877.604 119.68C877.604 124.881 875.683 130.082 871.841 135.276C868.547 139.925 864.48 143.576 859.654 146.23C857.681 147.334 856.69 148.551 856.69 149.881C856.69 151.318 857.846 153.034 860.15 155.022C861.906 156.459 863.662 157.902 865.418 159.339C865.523 159.452 871.564 164.979 883.539 175.932C891.118 182.796 896.498 188.935 899.68 194.355ZM864.923 119.846C865.253 117.858 865.358 116.088 865.253 114.539C864.923 112.218 863.959 110.116 862.368 108.234C860.777 106.352 858.222 105.414 854.71 105.414C852.076 105.414 850.425 106.245 849.765 107.901C849.217 110.668 848.94 113.821 848.94 117.359C848.94 118.795 849.105 122.506 849.435 128.479C849.653 133.015 849.653 136.719 849.435 139.599C858.552 132.742 863.708 126.158 864.916 119.853L864.923 119.846Z" fill="#4594D0"/>
<path d="M344.263 248.007C343.576 250.501 343.18 253.002 342.883 255.396C342.097 260.491 340.916 265.18 339.833 269.875C339.146 273.367 338.156 276.865 337.47 280.556L336.975 283.35L336.677 284.946C336.281 287.24 335.793 289.242 335.298 291.237C334.803 293.632 334.215 295.933 333.918 298.327L333.132 301.021C332.835 302.118 332.538 302.816 332.446 303.714C327.917 303.714 321.117 305.011 317.374 303.116C316.291 299.923 315.994 296.525 315.11 293.332C314.225 290.034 313.829 286.741 313.143 283.449C312.456 279.958 311.664 276.858 310.977 273.566L310.192 268.771C309.894 267.275 309.406 265.778 309.109 264.175C308.812 263.078 309.109 262.08 308.422 261.282C308.422 259.786 308.026 258.489 307.637 257.185C307.736 255.988 307.34 254.392 307.043 253.088C306.356 250.993 306.158 248.992 305.663 246.996L304.778 243.804C304.679 242.906 304.58 242.108 304.283 241.21C303.788 238.916 303.2 236.714 302.903 234.021C303.887 233.222 305.069 232.823 306.349 232.724C309.399 232.325 312.852 232.923 315.314 233.621C316.595 239.315 317.975 244.901 319.058 250.894C319.157 251.791 319.256 252.689 319.553 253.587C319.949 255.084 320.048 256.48 320.338 257.784C321.025 260.876 321.52 263.976 322.207 267.268C322.702 269.163 323.289 271.066 323.685 272.961C324.18 274.856 324.471 276.652 324.966 278.554C326.148 274.657 326.834 270.966 327.627 267.068C328.313 263.178 329.402 259.58 330.188 255.888C330.875 252.197 331.766 248.898 332.65 245.008C333.436 241.11 334.129 237.519 335.212 233.621C337.476 232.923 340.335 232.524 342.995 232.923C343.682 233.023 344.375 233.222 345.062 233.522C345.847 233.621 346.441 233.522 347.128 233.821C347.227 236.515 346.243 238.616 346.045 240.911C345.26 243.205 344.963 245.606 344.269 248.001L344.263 248.007Z" fill="#6FBC7E"/>
<path d="M390.646 301.925C390.745 302.424 391.142 302.624 390.845 303.122C386.606 303.422 383.457 303.721 379.127 303.422C379.028 303.322 378.929 303.122 378.631 303.023C378.532 301.127 378.037 300.03 377.648 298.427C376.961 295.334 376.169 292.933 375.78 289.741C370.954 289.442 367.409 290.04 362.385 290.04C361.302 294.436 360.708 299.125 359.236 303.422C355.79 303.721 351.063 304.02 347.617 303.521C347.221 303.222 347.419 302.723 347.518 302.225C348.013 299.93 348.402 297.03 348.799 294.337C349.096 293.239 349.294 292.142 349.393 291.144C349.888 288.75 350.178 286.449 350.673 284.055L351.657 280.363C351.657 279.266 351.954 278.667 352.251 277.869C352.548 275.874 352.746 273.074 353.136 270.68L353.921 267.587L354.219 265.891C354.516 265.193 355.004 264.594 354.714 263.896C354.813 263.597 355.011 263.696 355.11 263.397C355.407 260.903 356.192 257.405 356.688 254.113C356.787 253.215 357.084 252.317 357.374 251.519C357.374 250.421 357.572 249.823 357.869 248.925C358.166 248.426 358.265 247.828 358.364 247.129C358.661 245.433 358.859 243.531 359.15 241.636L359.447 240.239C359.744 239.142 359.843 237.446 360.233 236.142C360.53 235.045 360.629 233.848 361.315 232.95C365.943 232.052 370.868 232.351 375.892 232.85C376.189 232.85 376.09 233.249 376.387 233.149C376.783 236.441 377.569 239.541 378.255 242.633L378.75 245.826L379.536 248.719C380.321 251.811 380.817 254.811 381.503 258.003C382.586 263.996 384.065 269.383 385.246 275.774C385.642 277.67 385.933 279.465 386.23 281.368C386.527 282.864 387.214 284.36 387.61 285.963C388.296 289.156 388.791 292.455 389.577 295.647L390.072 298.141L390.468 300.535L390.666 301.932L390.646 301.925ZM373.218 277.264C372.432 273.373 371.739 269.177 370.657 264.781C369.97 262.087 369.475 259.686 368.788 257.292C367.607 264.082 366.029 270.673 364.458 277.464C367.508 277.763 370.564 277.364 373.225 277.264H373.218Z" fill="#6FBC7E"/>
<path d="M432.606 301.925C432.309 302.624 432.408 303.422 431.721 303.721C431.226 304.02 430.342 303.621 429.655 303.521C427.978 303.422 426.209 303.422 424.334 303.521C423.152 303.621 421.971 303.521 420.789 303.521C418.524 303.621 416.062 303.921 413.996 303.921C409.665 303.921 404.932 303.821 400.304 303.721C400.205 303.621 400.304 303.322 400.403 303.023C400.403 303.023 400.205 302.923 399.809 302.823C399.71 298.527 400.304 293.838 400.007 289.541C399.908 288.644 399.71 287.446 399.71 286.648C399.809 285.85 399.908 285.052 399.908 284.354V282.159L399.512 278.062C399.512 276.865 399.809 275.768 399.809 274.265C399.809 271.87 399.71 269.37 399.71 266.876C399.809 264.381 399.809 261.881 399.71 259.287C399.71 254.093 399.809 249.105 399.71 244.21C399.611 240.718 399.908 237.22 399.908 233.628C400.205 233.628 400.403 233.429 400.502 233.129C401.585 232.83 402.469 232.73 403.552 232.631C405.519 232.531 408.279 232.83 410.154 232.83C410.939 232.83 411.434 232.73 411.731 233.229C412.028 233.528 411.731 233.927 411.731 234.426C411.731 237.22 412.028 240.917 411.731 244.11C411.632 246.404 411.731 248.506 411.731 250.801C411.83 251.898 411.632 252.796 411.632 253.893C411.632 256.287 412.128 258.888 411.83 261.581C411.731 262.878 411.83 264.275 411.83 265.572C411.83 267.068 411.731 268.266 411.83 269.469L412.127 271.963C412.127 272.761 411.929 273.659 412.028 274.557C412.028 275.655 412.425 276.652 412.425 277.75C412.425 278.248 412.524 278.747 412.524 279.246C412.623 282.837 412.128 287.832 412.524 291.73C414.2 292.129 415.97 291.829 417.647 291.73C419.323 291.63 420.895 291.829 422.373 291.73C425.819 291.43 429.166 292.029 432.223 292.029C432.619 294.124 432.91 295.926 433.009 298.221C433.108 299.717 432.91 300.815 432.612 301.912L432.606 301.925Z" fill="#6FBC7E"/>
<path d="M474.659 301.925C474.362 302.624 474.461 303.422 473.774 303.721C473.279 304.02 472.394 303.621 471.708 303.521C470.031 303.422 468.262 303.422 466.387 303.521C465.205 303.621 464.023 303.521 462.842 303.521C460.577 303.621 458.115 303.921 456.048 303.921C451.718 303.921 446.984 303.821 442.357 303.721C442.258 303.621 442.357 303.322 442.456 303.023C442.456 303.023 442.258 302.923 441.862 302.823C441.763 298.527 442.357 293.838 442.06 289.541C441.961 288.644 441.762 287.446 441.762 286.648C441.862 285.85 441.961 285.052 441.961 284.354V282.159L441.564 278.062C441.564 276.865 441.862 275.768 441.862 274.265C441.862 271.87 441.762 269.37 441.762 266.876C441.862 264.381 441.862 261.881 441.762 259.287C441.762 254.093 441.862 249.105 441.762 244.21C441.663 240.718 441.961 237.22 441.961 233.628C442.258 233.628 442.456 233.429 442.555 233.129C443.637 232.83 444.522 232.73 445.605 232.631C447.572 232.531 450.331 232.83 452.206 232.83C452.992 232.83 453.487 232.73 453.784 233.229C454.081 233.528 453.784 233.927 453.784 234.426C453.784 237.22 454.081 240.917 453.784 244.11C453.685 246.404 453.784 248.506 453.784 250.801C453.883 251.898 453.685 252.796 453.685 253.893C453.685 256.287 454.18 258.888 453.883 261.581C453.784 262.878 453.883 264.275 453.883 265.572C453.883 267.068 453.784 268.266 453.883 269.469L454.18 271.963C454.18 272.761 453.982 273.659 454.081 274.557C454.081 275.655 454.477 276.652 454.477 277.75C454.477 278.248 454.576 278.747 454.576 279.246C454.675 282.837 454.18 287.832 454.576 291.73C456.253 292.129 458.022 291.829 459.699 291.73C461.376 291.63 462.947 291.829 464.426 291.73C467.872 291.43 471.219 292.029 474.276 292.029C474.672 294.124 474.962 295.926 475.061 298.221C475.16 299.717 474.962 300.815 474.665 301.912L474.659 301.925Z" fill="#6FBC7E"/>
<path d="M521.042 299.631C521.339 300.728 520.745 302.225 520.646 303.322C520.25 303.621 519.96 303.521 519.762 303.122L507.549 302.923C504.103 302.823 500.855 303.422 497.012 303.521C492.682 303.821 489.038 303.621 484.799 303.621C484.502 303.322 484.304 303.422 484.014 303.122C483.717 299.125 484.014 295.235 483.717 291.337C483.618 289.442 483.816 287.44 483.717 285.544C483.42 281.654 483.618 278.056 483.717 274.065C483.816 273.666 483.618 273.466 483.915 273.167C483.618 272.668 483.915 272.269 483.915 271.771C483.915 270.573 483.717 269.376 483.717 268.279C483.618 267.181 483.618 266.284 483.618 265.186C483.519 264.288 483.42 262.991 483.717 262.193C483.618 258.303 483.915 253.408 483.618 249.011C483.618 248.945 483.585 248.878 483.519 248.812V248.513H483.618C483.717 243.618 483.717 238.43 483.717 234.034C484.014 233.834 484.212 233.635 484.212 233.336C492.88 232.637 501.548 233.435 510.308 233.036C513.068 232.936 515.82 233.236 518.58 233.236C519.366 233.236 520.059 233.036 520.844 233.336C520.844 233.834 520.943 234.233 521.042 234.632C521.141 235.131 521.141 235.929 521.438 236.428C521.438 238.922 521.637 240.725 521.141 243.019C521.141 243.817 520.943 245.114 520.646 246.012C519.564 246.311 518.679 246.012 517.788 246.012C515.92 245.912 514.54 246.012 512.665 246.012C510.988 246.012 509.417 245.812 507.839 245.812C503.997 245.912 500.155 245.812 496.121 245.812C496.121 246.411 496.121 246.81 496.22 246.91V247.109C496.22 248.306 496.121 249.404 496.022 250.601L495.923 250.701C495.824 254.798 495.237 258.988 496.418 262.486C500.26 262.486 505.185 262.087 508.73 262.486C509.813 262.187 510.797 262.386 511.978 262.386C512.275 262.386 512.566 262.486 512.863 262.486C513.55 262.486 514.54 262.286 515.226 262.586C515.913 265.778 516.21 270.174 515.424 274.171C514.738 274.271 514.045 274.271 513.358 274.271C510.896 274.171 508.532 274.072 506.07 274.171C506.07 274.271 506.07 274.371 505.971 274.271C502.921 273.972 499.864 274.271 496.418 274.271C496.121 279.066 495.732 285.857 496.22 291.045C502.624 291.045 509.912 291.643 516.217 291.344C516.712 291.344 517.101 291.244 517.497 291.045C518.184 291.344 519.174 290.945 519.861 291.244C520.257 290.945 520.547 290.845 520.844 291.045C521.339 293.339 521.828 296.937 521.042 299.631ZM508.638 215.159C506.572 218.251 505.093 221.85 502.63 224.543C502.333 225.241 502.036 225.641 501.746 226.139C499.283 225.84 496.233 226.04 493.771 226.04C493.672 225.541 493.474 225.241 493.276 224.942C493.962 223.845 494.458 222.448 494.953 221.145C495.639 220.047 495.639 218.651 496.431 217.952C496.728 216.655 497.514 215.757 498.207 214.66C498.405 213.862 498.702 213.164 499.191 212.665C501.554 212.565 503.033 212.266 505.297 212.266C506.578 212.266 507.661 212.366 508.644 212.665C508.942 212.665 508.942 212.565 509.232 212.565C510.117 213.263 508.737 214.061 508.644 215.159H508.638Z" fill="#6FBC7E"/>
<path d="M569.498 299.631C569.796 300.728 569.201 302.225 569.102 303.322C568.706 303.621 568.416 303.521 568.218 303.122L556.005 302.923C552.559 302.823 549.304 303.422 545.468 303.521C541.138 303.821 537.494 303.621 533.255 303.621C532.958 303.322 532.76 303.422 532.47 303.122C532.173 299.125 532.47 295.235 532.173 291.337C532.074 289.442 532.272 287.44 532.173 285.544C531.876 281.654 532.074 278.056 532.173 274.065C532.272 273.666 532.074 273.466 532.371 273.167C532.074 272.668 532.371 272.269 532.371 271.771C532.371 270.573 532.173 269.376 532.173 268.279C532.074 267.181 532.074 266.284 532.074 265.186C531.975 264.288 531.876 262.991 532.173 262.193C532.074 258.303 532.371 253.408 532.074 249.011C532.074 248.945 532.041 248.878 531.975 248.812V248.513H532.074C532.173 243.618 532.173 238.43 532.173 234.034C532.47 233.834 532.668 233.635 532.668 233.336C541.336 232.637 550.004 233.435 558.764 233.036C561.524 232.936 564.277 233.236 567.036 233.236C567.822 233.236 568.515 233.036 569.3 233.336C569.3 233.834 569.399 234.233 569.498 234.632C569.597 235.131 569.597 235.929 569.895 236.428C569.895 238.922 570.093 240.725 569.597 243.019C569.597 243.817 569.399 245.114 569.102 246.012C568.02 246.311 567.135 246.012 566.244 246.012C564.376 245.912 562.996 246.012 561.121 246.012C559.444 246.012 557.873 245.812 556.295 245.812C552.453 245.912 548.611 245.812 544.577 245.812C544.577 246.411 544.577 246.81 544.676 246.91V247.109C544.676 248.306 544.577 249.404 544.478 250.601L544.379 250.701C544.28 254.798 543.693 258.988 544.874 262.486C548.716 262.486 553.641 262.087 557.186 262.486C558.269 262.187 559.253 262.386 560.434 262.386C560.731 262.386 561.029 262.486 561.319 262.486C562.006 262.486 562.996 262.286 563.682 262.586C564.369 265.778 564.666 270.174 563.88 274.171C563.194 274.271 562.501 274.271 561.814 274.271C559.352 274.171 556.988 274.072 554.526 274.171C554.526 274.271 554.526 274.371 554.427 274.271C551.377 273.972 548.32 274.271 544.874 274.271C544.577 279.066 544.188 285.857 544.676 291.045C551.08 291.045 558.368 291.643 564.673 291.344C565.168 291.344 565.557 291.244 565.953 291.045C566.64 291.344 567.63 290.945 568.317 291.244C568.713 290.945 569.003 290.845 569.3 291.045C569.796 293.339 570.284 296.937 569.498 299.631Z" fill="#6FBC7E"/>
<path d="M649.761 285.351C649.761 286.848 649.96 288.045 649.662 289.342C649.96 290.838 649.167 292.235 648.679 293.539C648.283 294.835 647.695 296.033 646.903 296.93C645.424 298.626 643.457 299.524 642.374 301.426C642.671 302.125 642.671 302.524 642.962 303.222L643.648 304.32C643.945 305.018 644.044 305.816 644.335 306.514C645.616 309.607 646.995 312.606 648.177 315.899C648.078 316.198 647.979 316.397 647.979 316.697C644.731 317.096 641.377 317.096 637.931 316.697C637.832 316.497 637.634 316.397 637.436 316.397C636.354 313.604 635.073 310.904 633.792 308.21C633.105 306.714 632.808 305.317 632.016 304.014C630.537 304.313 628.966 304.113 627.487 303.814C626.405 303.515 625.52 303.315 624.728 303.016C624.041 302.717 623.546 302.816 623.15 302.717C622.853 302.617 622.655 302.318 622.365 302.218L621.084 301.719L620.886 301.52L619.902 300.921C619.117 300.522 618.225 299.624 617.44 298.926C616.555 298.028 615.763 296.931 615.076 295.833C614.39 294.736 613.796 293.339 613.301 291.736C613.003 290.34 612.805 288.843 612.706 287.34C612.409 285.744 612.805 283.948 612.706 282.645C612.607 280.35 612.805 278.049 612.805 275.655V270.361C612.904 265.466 612.805 259.48 612.805 254.286C612.805 252.59 612.904 250.894 613.003 249.191C613.003 248.692 613.202 248.193 613.102 247.695C613.102 246.996 613.003 246.697 613.003 245.999C613.102 245.3 613.4 244.901 613.301 244.402C613.987 242.906 614.581 241.809 615.076 240.306C616.159 238.41 617.638 237.007 619.308 235.71C619.902 235.111 620.49 234.712 621.084 234.413C622.167 233.914 623.348 233.615 624.629 233.316C625.316 233.016 625.811 232.917 626.497 232.817C628.564 232.318 630.735 232.517 633 232.617C634.083 232.717 635.066 232.517 635.957 232.817C636.453 232.917 637.04 233.316 637.436 232.917C639.701 233.615 641.575 234.812 643.444 236.009C644.625 236.707 645.411 237.605 646.302 238.703C646.797 239.401 646.989 239.8 647.385 240.698C647.682 241.396 648.27 241.895 648.567 242.593L648.864 243.591C649.161 244.389 649.161 244.988 649.26 246.085C649.359 246.783 649.656 247.482 649.656 248.38C649.755 250.076 649.557 251.672 649.656 253.574V256.068C649.656 258.762 649.458 261.961 649.755 265.053C649.26 267.148 649.755 269.749 649.755 272.043C649.656 273.939 649.656 275.734 649.656 277.637C649.656 279.632 649.953 281.833 649.953 283.828C649.953 284.128 649.854 284.627 649.755 285.325L649.761 285.351ZM637.548 256.992V254.997C637.449 254.199 637.251 253.501 637.251 252.802C637.251 251.505 637.449 250.209 637.35 248.912C637.251 247.415 637.152 247.315 636.367 246.617C636.07 246.318 635.872 245.919 635.581 245.819C635.086 245.52 634.201 245.52 633.515 245.22C632.432 244.921 631.647 244.722 631.349 244.722C629.871 244.622 628.392 245.121 627.309 245.62C626.913 245.919 626.425 245.919 626.326 246.218L625.54 247.315C625.441 247.715 625.639 248.114 625.54 248.513C625.441 248.812 625.243 249.111 625.243 249.411C624.946 250.508 625.045 251.805 625.045 253.108C625.045 254.412 624.847 255.802 624.847 257.099C624.847 259.792 625.144 262.493 625.045 264.887C625.045 266.483 624.946 268.079 624.946 269.981C624.847 271.877 624.946 273.779 624.946 275.675C624.649 279.665 624.259 285.059 625.54 288.757C626.227 289.455 626.227 290.054 626.92 290.552C627.606 291.051 628.986 291.75 629.877 291.849C631.455 292.149 633.521 291.55 635 290.852C636.479 290.153 637.066 289.355 637.463 287.659C637.76 286.462 637.463 284.966 637.463 283.762C637.463 283.064 637.562 282.465 637.562 281.966C637.463 280.071 637.364 278.275 637.463 276.373C637.562 272.376 637.463 268.285 637.463 264.687C637.463 261.894 637.859 259.393 637.562 256.999L637.548 256.992Z" fill="#6FBC7E"/>
<path d="M682.063 303.222C679.205 303.921 676.155 304.12 672.907 303.721C671.527 303.621 670.345 303.322 669.362 303.023C668.576 302.723 667.784 302.324 666.998 301.925C666.213 301.426 665.322 301.127 664.635 300.628C663.75 299.93 663.453 299.232 662.371 298.533C661.09 296.638 659.512 295.241 658.726 292.94C658.429 291.743 658.04 290.645 657.941 289.448C657.644 287.154 657.545 284.454 657.545 282.059C657.545 280.862 657.743 279.765 657.842 278.667C657.842 277.071 657.155 274.87 657.842 273.673C657.446 273.573 657.644 272.675 657.644 271.977C657.644 267.082 657.347 263.091 657.644 257.099C657.941 251.905 657.644 246.617 657.644 241.423C657.743 238.929 657.941 236.428 657.644 234.134C657.743 233.834 658.04 233.834 658.04 233.435L662.569 232.637C664.932 232.338 667.295 233.136 669.659 233.236C670.543 234.134 669.56 236.535 670.055 237.532C669.659 237.831 670.154 238.33 669.857 238.63C670.154 240.325 669.956 242.321 670.055 244.223C670.055 246.218 670.154 248.22 670.055 250.315C670.055 253.807 670.154 257.804 670.154 262.1L669.857 274.384C669.758 277.477 669.956 280.576 670.055 283.27C670.055 285.165 669.758 286.761 670.451 288.364C671.138 290.06 672.418 291.058 674.194 291.457C674.881 291.557 675.772 291.856 676.855 291.756C677.152 291.756 677.449 291.557 677.739 291.457C678.036 291.357 678.333 291.457 678.624 291.357C679.806 291.058 681.674 290.06 682.07 288.963C682.367 288.564 682.268 287.965 682.367 287.466C682.664 286.469 682.664 285.671 682.367 285.072C682.664 282.678 682.466 279.778 682.367 276.985C682.268 274.491 682.268 271.092 682.268 268.997C682.268 268.897 682.565 268.399 682.169 268.399C682.169 268.099 682.466 268.498 682.367 268.099C682.367 264.608 682.565 260.81 682.664 257.119V250.328C682.664 247.635 682.565 245.334 682.565 242.44C682.565 241.942 682.763 241.443 682.763 240.944C682.763 240.445 682.664 240.046 682.664 239.547L682.862 233.555C683.549 233.256 684.44 233.056 685.424 232.956C686.308 232.857 687.292 232.657 687.985 232.757C690.249 232.059 692.811 232.657 694.778 233.355C694.877 233.655 694.778 233.954 695.075 234.054C695.372 239.647 694.481 244.136 694.778 249.43C694.877 251.326 694.877 253.029 694.877 255.024C694.877 258.915 694.778 262.413 694.778 266.104C694.778 269.296 695.075 272.595 694.679 276.087C695.075 278.481 694.481 281.481 694.58 284.174C694.679 285.371 694.877 287.167 694.778 288.271C694.679 288.57 694.58 289.069 694.283 289.768C693.986 290.865 693.887 292.561 693.497 293.864C693.398 294.164 693.2 294.164 693.2 294.463C693.101 294.563 693.2 294.762 693.101 295.062L692.507 295.86C691.821 296.957 691.424 297.655 690.342 298.553C689.655 299.252 689.16 299.85 688.474 300.349C688.176 300.648 687.688 300.648 687.292 300.948C686.995 301.247 686.698 301.347 686.308 301.646L685.126 302.145L683.846 302.943L682.07 303.242L682.063 303.222Z" fill="#6FBC7E"/>
<path d="M742.138 299.631C742.435 300.728 741.841 302.225 741.742 303.322C741.346 303.621 741.055 303.521 740.857 303.122L728.644 302.923C725.198 302.823 721.95 303.422 718.108 303.521C713.777 303.821 710.133 303.621 705.895 303.621C705.598 303.322 705.4 303.422 705.109 303.122C704.812 299.125 705.109 295.235 704.812 291.337C704.713 289.442 704.911 287.44 704.812 285.544C704.515 281.654 704.713 278.056 704.812 274.065C704.911 273.666 704.713 273.466 705.01 273.167C704.713 272.668 705.01 272.269 705.01 271.771C705.01 270.573 704.812 269.376 704.812 268.279C704.713 267.181 704.713 266.284 704.713 265.186C704.614 264.288 704.515 262.991 704.812 262.193C704.713 258.303 705.01 253.408 704.713 249.011C704.713 248.945 704.68 248.878 704.614 248.812V248.513H704.713C704.812 243.618 704.812 238.43 704.812 234.034C705.109 233.834 705.307 233.635 705.307 233.336C713.975 232.637 722.643 233.435 731.404 233.036C734.163 232.936 736.916 233.236 739.676 233.236C740.461 233.236 741.154 233.036 741.94 233.336C741.94 233.834 742.039 234.233 742.138 234.632C742.237 235.131 742.237 235.929 742.534 236.428C742.534 238.922 742.732 240.725 742.237 243.019C742.237 243.817 742.039 245.114 741.742 246.012C740.659 246.311 739.775 246.012 738.884 246.012C737.015 245.912 735.635 246.012 733.761 246.012C732.084 246.012 730.513 245.812 728.935 245.812C725.093 245.912 721.25 245.812 717.217 245.812C717.217 246.411 717.217 246.81 717.316 246.91V247.109C717.316 248.306 717.217 249.404 717.118 250.601L717.019 250.701C716.92 254.798 716.332 258.988 717.514 262.486C721.356 262.486 726.281 262.087 729.826 262.486C730.909 262.187 731.892 262.386 733.074 262.386C733.371 262.386 733.668 262.486 733.959 262.486C734.645 262.486 735.635 262.286 736.322 262.586C737.009 265.778 737.306 270.174 736.52 274.171C735.834 274.271 735.14 274.271 734.454 274.271C731.991 274.171 729.628 274.072 727.166 274.171C727.166 274.271 727.166 274.371 727.067 274.271C724.017 273.972 720.96 274.271 717.514 274.271C717.217 279.066 716.827 285.857 717.316 291.045C723.719 291.045 731.008 291.643 737.306 291.344C737.801 291.344 738.19 291.244 738.586 291.045C739.273 291.344 740.263 290.945 740.95 291.244C741.346 290.945 741.636 290.845 741.933 291.045C742.429 293.339 742.917 296.937 742.131 299.631H742.138Z" fill="#6FBC7E"/>
<path d="M753.07 302.624C753.07 300.628 753.07 298.427 753.169 295.334C753.268 293.439 753.565 291.743 753.268 289.841C753.169 289.043 753.268 288.145 753.268 287.347C753.367 285.252 753.367 283.05 753.367 280.756C753.367 276.659 753.664 271.97 753.367 266.776C753.268 264.481 753.664 262.28 753.664 259.886C753.664 257.99 753.565 256.494 753.664 254.392C753.763 251.698 753.862 248.499 753.862 245.207C753.862 240.911 753.664 237.818 753.763 233.927C753.862 233.628 754.16 233.429 754.061 233.03C756.325 232.73 758.985 232.73 761.349 232.73C767.257 232.73 773.562 233.03 778.685 234.227C780.163 234.626 781.048 234.825 782.131 235.524C782.23 235.823 782.428 235.224 782.718 235.524C784.983 237.02 786.759 239.221 788.039 241.616C788.336 242.913 788.825 243.711 789.32 244.609C789.617 245.706 789.908 246.604 790.007 247.502C790.403 249.198 790.007 251.2 790.106 253.095C790.205 253.993 790.304 254.891 790.205 255.789C790.106 257.884 789.809 259.886 789.32 261.881C788.924 263.577 788.435 265.073 787.643 266.377C786.362 268.372 784.884 269.868 783.015 271.371C782.329 272.07 781.735 272.768 780.85 273.167C781.537 275.561 782.131 278.162 783.213 280.257C783.709 282.152 784.296 283.955 784.989 285.85L786.858 291.344C787.94 294.037 788.825 296.837 789.716 299.73C790.211 301.027 790.997 302.125 790.502 303.422C788.435 304.12 785.28 304.32 782.428 303.621C780.949 303.322 779.866 302.923 778.685 302.823C777.8 299.93 776.909 297.23 775.826 294.037C775.14 292.042 774.744 290.04 774.05 287.945C772.968 284.454 771.885 281.155 770.703 277.663C770.406 276.965 770.017 276.366 769.918 275.269C769.033 275.568 767.059 275.568 765.877 275.269C765.58 279.964 765.382 285.052 765.481 289.947C765.481 290.346 765.382 290.745 765.382 291.144C765.481 293.838 765.58 296.438 765.481 298.932V301.626C765.382 302.324 764.986 302.624 764.986 303.322C763.019 304.12 760.656 304.12 757.995 303.821C756.127 303.521 754.747 303.322 753.07 302.624ZM754.648 233.927H754.747L754.648 234.027V233.927ZM766.069 262.586C770.307 262.686 774.242 262.686 776.704 260.99C777.391 260.291 777.292 259.593 777.589 258.396C777.886 256.8 777.886 255.503 777.886 253.9C777.787 251.805 778.183 249.304 777.49 247.808C777.193 247.109 776.605 246.511 775.622 246.012C774.143 245.314 771.779 245.314 769.911 245.413C768.828 245.513 767.251 245.413 765.97 245.413C765.97 249.105 766.069 254.099 765.97 258.196C765.871 259.693 765.673 261.389 766.069 262.592V262.586Z" fill="#6FBC7E"/>
<path d="M835.703 283.35C835.703 284.247 835.802 285.245 835.802 286.143C835.802 287.041 835.505 287.939 835.505 288.836C835.406 290.532 835.109 292.129 834.423 293.632L832.746 296.724C831.663 298.72 829.788 299.518 827.92 301.021C826.837 301.819 825.755 302.417 824.276 302.816C823.193 303.116 821.615 303.515 820.137 303.814C819.054 303.914 818.367 303.714 817.575 304.014C815.997 303.714 814.327 303.914 812.65 303.615C811.865 303.515 810.973 303.615 810.089 303.315C808.61 302.916 807.039 302.417 805.851 301.32C805.355 300.921 805.164 300.522 804.372 300.223C803.487 298.926 802.695 298.028 801.612 296.93C801.315 295.833 800.629 295.135 800.133 294.237C799.836 293.838 799.737 293.239 799.638 292.74C799.341 292.242 799.143 291.843 799.051 291.344C798.754 290.546 798.853 289.648 798.754 288.55C798.754 287.453 798.556 286.455 798.556 285.358C798.457 284.261 798.556 283.263 798.556 282.166C798.556 281.068 798.655 279.971 798.556 278.874C798.259 277.178 798.754 274.278 798.754 272.582C798.655 269.888 798.166 267.188 798.259 264.794C798.259 264.095 798.358 263.696 798.358 262.998V262.2C798.358 261.901 798.556 261.801 798.556 261.502C798.556 260.803 798.457 260.404 798.457 259.706C798.457 257.411 798.358 254.512 798.655 252.018C798.754 250.521 798.556 249.025 798.853 247.721C799.15 246.424 799.447 244.928 799.836 243.624C800.332 241.729 800.82 240.133 801.903 238.929C802.2 237.432 803.672 236.734 805.151 235.936L808.498 234.04C809.58 233.542 810.564 232.943 812.043 232.644C812.729 232.544 813.324 232.544 814.01 232.544C816.473 232.245 818.737 232.544 821.001 232.843C822.084 233.143 823.167 232.943 824.249 233.242C825.134 233.542 825.926 234.14 826.811 234.24C827.306 234.938 827.992 235.238 828.679 235.736C828.778 235.836 828.778 236.036 829.075 236.335C829.372 236.634 829.471 236.435 829.762 236.734L830.547 237.632L831.234 238.53C832.02 239.428 832.713 240.425 833.399 241.423C835.268 245.314 835.466 250.907 835.175 256.5C834.68 256.8 834.191 256.8 833.399 256.8C831.921 256.899 830.64 257.199 828.772 257.199C827.689 257.199 826.996 257.298 825.524 256.999C824.441 256.7 823.754 256.7 823.259 256.201C823.358 253.308 823.754 250.209 822.863 247.914C822.566 247.515 822.665 247.016 822.368 246.717C821.483 245.121 818.037 244.123 815.575 244.622C814.69 244.722 813.898 245.121 813.211 245.42C812.525 245.819 812.228 246.517 811.535 246.916C809.957 249.81 810.94 253.507 810.94 257.398C810.94 263.39 810.643 268.984 810.742 274.57C810.841 276.865 810.94 278.967 810.94 281.062C810.94 283.356 810.742 285.358 811.238 287.653C811.634 289.648 812.716 290.546 814.287 291.344C815.964 291.643 817.436 292.242 819.014 291.543C819.41 291.444 819.899 290.945 820.394 290.645C821.18 290.246 822.46 289.748 822.955 288.95C823.253 288.55 823.055 287.952 823.451 287.553C823.154 285.657 824.335 283.157 823.649 280.663C823.748 280.264 823.847 279.964 823.847 279.665C826.111 278.667 828.673 278.368 831.63 278.667C832.416 278.767 833.307 279.066 834.092 279.166C834.779 279.166 835.274 279.066 835.67 279.465C835.769 280.663 835.67 281.86 835.67 283.363L835.703 283.35Z" fill="#6FBC7E"/>
<path d="M882.978 237.12C881.895 239.813 880.812 242.414 879.73 244.808L879.043 246.005C878.647 247.103 878.356 248.3 877.861 249.397C876.779 251.392 876.284 253.494 875.201 255.789C873.333 259.886 871.557 264.475 869.979 268.472C869.292 270.068 868.599 271.265 868.111 273.167C868.012 277.464 868.507 282.551 868.21 286.948C868.111 289.342 868.012 291.843 868.012 294.337C868.012 297.429 868.408 300.628 868.111 303.322C867.616 303.621 867.226 303.422 866.731 303.422C865.054 303.521 863.285 304.02 861.41 304.02L858.551 303.821C857.667 303.721 856.683 303.721 855.891 303.322C855.891 302.125 855.891 300.628 855.99 299.025C855.99 297.529 856.188 296.033 856.188 294.53L855.891 291.836C855.594 285.445 855.792 278.854 856.089 272.462L853.627 266.669C853.33 265.273 852.841 263.876 852.148 262.572C849.784 257.378 847.619 251.991 845.546 245.999C844.662 243.205 843.183 240.705 842.1 238.011C841.605 236.515 841.116 235.218 840.324 233.914C840.522 233.715 840.621 233.415 840.72 233.116C844.562 232.817 848.306 232.717 852.537 233.116C853.032 233.216 853.422 233.216 853.818 233.116C855.396 237.213 856.776 241.403 858.248 245.899C858.743 247.395 859.033 248.792 859.727 250.295C860.413 252.191 861.502 254.093 862.189 256.088C863.371 253.694 864.354 251.193 865.437 248.898L865.833 247.601C867.701 243.205 869.378 238.117 870.956 233.422C874.897 232.724 879.426 233.023 883.664 233.322C884.549 234.42 883.466 236.016 882.978 237.12ZM882.879 237.319H882.284C882.383 237.419 882.78 237.619 882.879 237.319Z" fill="#6FBC7E"/>
<path opacity="0.7" fill-rule="evenodd" clip-rule="evenodd" d="M147.302 46.8203C212.183 46.8203 264.778 99.9004 264.778 165.378C264.778 204.677 245.818 239.501 216.639 261.069L218.903 263.357C234.18 278.774 249.06 293.791 253.338 298.108L254.559 299.338C254.559 299.338 238.708 314.262 220.64 314.262C203.977 314.262 189.968 304.379 184.977 299.338L133.379 247.269L161.918 283.024C157.132 283.622 152.26 283.941 147.308 283.941C82.4206 283.928 29.8252 230.848 29.8252 165.371C29.8252 99.8938 82.4206 46.8203 147.302 46.8203ZM147.302 96.4752C109.6 96.4752 79.034 127.322 79.034 165.371C79.034 189.786 91.63 211.215 110.61 223.459C113.27 221.211 127.761 209.592 144.093 208.914C163.331 208.116 176.91 220.965 179.756 223.838L181.122 225.215C181.228 225.155 181.333 225.095 181.439 225.035L215.583 259.101L185.519 222.481C203.66 210.098 215.583 189.141 215.583 165.378C215.583 127.328 185.017 96.4819 147.315 96.4819L147.302 96.4752Z" fill="#EB5D15"/>
<path fill-rule="evenodd" clip-rule="evenodd" d="M122.328 217.813C143.539 150.141 184.073 91.1679 237.435 47.3457C239.739 51.2365 241.957 55.0474 244.096 59.0246C194.603 100.107 156.696 155.022 136.145 217.813H164.017C182.845 165.052 215.154 118.749 256.678 82.9675C258.652 87.1109 260.626 91.2477 262.514 95.3912C225.188 128.273 195.837 170.186 177.993 217.813H185.064C203.231 170.685 232.833 129.27 270.568 97.127C266.871 88.8468 262.924 80.6463 258.811 72.5257C214.494 108.719 179.881 156.519 159.409 211.182H145.348C166.724 151.464 204.215 99.528 252.559 60.6806C248.281 52.8127 243.845 45.0246 239.237 37.4893C181.439 82.881 137.617 145.585 115.416 217.813H122.321H122.328Z" fill="#4594D0"/>
<path fill-rule="evenodd" clip-rule="evenodd" d="M111.805 207.544C129.233 155.195 158.01 107.981 195.012 68.8877C169.932 85.3684 138.198 118.17 119.291 155.694C122.248 145.339 128.5 131.758 136.066 119.168C118.301 87.2705 96.5943 57.7809 71.5146 31.6099C59.592 47.6783 48.6596 64.4915 38.7109 81.9698C70.7752 118.084 95.9341 160.656 111.805 207.544Z" fill="#6FBC7E"/>
</svg>
